<svg width="45" height="45" viewBox="0 0 45 45" fill="none" xmlns="http://www.w3.org/2000/svg">
<path d="M31.6964 24.5218H13.3035C12.8157 24.5218 12.3479 24.3281 12.0029 23.9831C11.658 23.6382 11.4642 23.1704 11.4642 22.6825C11.4642 22.1947 11.658 21.7269 12.0029 21.382C12.3479 21.037 12.8157 20.8433 13.3035 20.8433H31.6964C32.1842 20.8433 32.652 21.037 32.997 21.382C33.3419 21.7269 33.5357 22.1947 33.5357 22.6825C33.5357 23.1704 33.3419 23.6382 32.997 23.9831C32.652 24.3281 32.1842 24.5218 31.6964 24.5218Z" fill="#EB144E"/>
<path opacity="0.5" d="M22.5001 4.29004C19.0186 4.28952 15.6084 5.27714 12.666 7.1381C9.72352 8.99906 7.3697 11.6569 5.87809 14.8027C4.38647 17.9485 3.81834 21.4531 4.23972 24.909C4.6611 28.365 6.05469 31.6303 8.2585 34.3256L4.64614 37.9361C4.38899 38.1933 4.21388 38.521 4.14294 38.8777C4.072 39.2345 4.10843 39.6042 4.24761 39.9403C4.38679 40.2763 4.62247 40.5635 4.92487 40.7657C5.22726 40.9678 5.5828 41.0757 5.94651 41.0758H22.5001C27.3782 41.0758 32.0565 39.1379 35.5058 35.6886C38.9551 32.2393 40.8929 27.561 40.8929 22.6829C40.8929 17.8048 38.9551 13.1265 35.5058 9.67718C32.0565 6.22785 27.3782 4.29004 22.5001 4.29004ZM16.9822 13.4865H28.0179C28.5058 13.4865 28.9736 13.6802 29.3185 14.0252C29.6634 14.3701 29.8572 14.8379 29.8572 15.3258C29.8572 15.8136 29.6634 16.2814 29.3185 16.6263C28.9736 16.9713 28.5058 17.165 28.0179 17.165H16.9822C16.4944 17.165 16.0266 16.9713 15.6817 16.6263C15.3367 16.2814 15.1429 15.8136 15.1429 15.3258C15.1429 14.8379 15.3367 14.3701 15.6817 14.0252C16.0266 13.6802 16.4944 13.4865 16.9822 13.4865ZM28.0179 31.8793H16.9822C16.4944 31.8793 16.0266 31.6855 15.6817 31.3406C15.3367 30.9957 15.1429 30.5278 15.1429 30.04C15.1429 29.5522 15.3367 29.0844 15.6817 28.7395C16.0266 28.3945 16.4944 28.2008 16.9822 28.2008H28.0179C28.5058 28.2008 28.9736 28.3945 29.3185 28.7395C29.6634 29.0844 29.8572 29.5522 29.8572 30.04C29.8572 30.5278 29.6634 30.9957 29.3185 31.3406C28.9736 31.6855 28.5058 31.8793 28.0179 31.8793ZM31.6965 24.5222H13.3037C12.8158 24.5222 12.348 24.3284 12.0031 23.9835C11.6582 23.6385 11.4644 23.1707 11.4644 22.6829C11.4644 22.1951 11.6582 21.7273 12.0031 21.3823C12.348 21.0374 12.8158 20.8436 13.3037 20.8436H31.6965C32.1843 20.8436 32.6522 21.0374 32.9971 21.3823C33.342 21.7273 33.5358 22.1951 33.5358 22.6829C33.5358 23.1707 33.342 23.6385 32.9971 23.9835C32.6522 24.3284 32.1843 24.5222 31.6965 24.5222Z" fill="#EB144E"/>
<path d="M28.0178 31.8787H16.9821C16.4943 31.8787 16.0265 31.6849 15.6815 31.34C15.3366 30.9951 15.1428 30.5272 15.1428 30.0394C15.1428 29.5516 15.3366 29.0838 15.6815 28.7388C16.0265 28.3939 16.4943 28.2001 16.9821 28.2001H28.0178C28.5056 28.2001 28.9735 28.3939 29.3184 28.7388C29.6633 29.0838 29.8571 29.5516 29.8571 30.0394C29.8571 30.5272 29.6633 30.9951 29.3184 31.34C28.9735 31.6849 28.5056 31.8787 28.0178 31.8787ZM28.0178 17.1644H16.9821C16.4943 17.1644 16.0265 16.9706 15.6815 16.6257C15.3366 16.2808 15.1428 15.8129 15.1428 15.3251C15.1428 14.8373 15.3366 14.3695 15.6815 14.0246C16.0265 13.6796 16.4943 13.4858 16.9821 13.4858H28.0178C28.5056 13.4858 28.9735 13.6796 29.3184 14.0246C29.6633 14.3695 29.8571 14.8373 29.8571 15.3251C29.8571 15.8129 29.6633 16.2808 29.3184 16.6257C28.9735 16.9706 28.5056 17.1644 28.0178 17.1644Z" fill="#EB144E"/>
</svg>
